# xmcd CD database file
#
# Track frame offsets:
#	150
#	19172
#	38710
#	57730
#
# Disc length: 1028 seconds
#
# Revision: 0
# Processed by: cddbd v1.5.1PL0 Copyright (c) Steve Scherf et al.
# Submitted via: CDex 1.51
#
DISCID=30040204
DTITLE=AYA - That'sはいぱーてんしょん!! (EP)
DYEAR=1997
DGENRE=Pop
TTITLE0=That'sはいぱーてんしょん!!
TTITLE1=一緒にいようね
TTITLE2=That'sはいぱーてんしょん!!（カラオケ）
TTITLE3=一緒にいようね（カラオケ）
EXTD=YEAR: 1997
EXTT0=
EXTT1=
EXTT2=
EXTT3=
PLAYORDER=
